<svg xmlns="http://www.w3.org/2000/svg" viewBox="0 0 69.96 69.96"><defs><style>.cls-1{fill:#e26a6a;}.cls-2{fill:#34495e;}.cls-3{fill:#2c3e50;}.cls-4{fill:#f9b256;}.cls-5{fill:#22313f;}.cls-6{fill:#fff;}.cls-7{fill:#ecf0f1;}.cls-8{fill:#eb974e;}.cls-9{fill:#f4b350;}.cls-10{fill:#a2ded0;}.cls-11{fill:#4ecdc4;}</style></defs><title>default_avatar_1</title><g id="Calque_2" data-name="Calque 2"><g id="_2" data-name="2"><circle class="cls-1" cx="34.98" cy="34.98" r="34.98"/><path class="cls-2" d="M24.36,60.14a11.4,11.4,0,0,1,4.48-.81c3.4,0,6.16,1.16,6.16,2.58h0V13.69c-10.49,0-19,11.37-19,25.4C16,47.85,19.32,55.57,24.36,60.14Z"/><path class="cls-3" d="M43.34,61.91C49.64,57.77,54,49.11,54,39.09c0-14-8.5-25.4-19-25.4V61.91Z"/><ellipse class="cls-3" cx="22.22" cy="44.29" rx="4.47" ry="6.66" transform="translate(-8.46 5.38) rotate(-11.62)"/><ellipse class="cls-4" cx="28.83" cy="61.91" rx="6.16" ry="2.58"/><ellipse class="cls-5" cx="47.76" cy="44.29" rx="6.66" ry="4.47" transform="translate(-5.24 82.16) rotate(-78.38)"/><path class="cls-6" d="M28.83,59.32c3.4,0,6.16,1.16,6.16,2.58h0V42.17c-4.9,0-8.88,5-8.88,11.16a13.26,13.26,0,0,0,1.42,6.05C28,59.34,28.39,59.32,28.83,59.32Z"/><path class="cls-7" d="M41.15,59.32c.45,0,.88,0,1.3.06a13.24,13.24,0,0,0,1.42-6.05c0-6.16-4-11.16-8.88-11.16V61.91h0C35,60.48,37.75,59.32,41.15,59.32Z"/><ellipse class="cls-8" cx="41.15" cy="61.91" rx="6.16" ry="2.58"/><circle class="cls-6" cx="45.17" cy="30.4" r="2.9"/><circle class="cls-6" cx="24.99" cy="30.4" r="2.9"/><circle cx="26.2" cy="30.95" r="1.21"/><circle cx="43.96" cy="30.95" r="1.21"/><path class="cls-9" d="M30.31,34.82c0,1.14,2.1,2.07,4.68,2.07V32.75C32.4,32.75,30.31,33.68,30.31,34.82Z"/><path class="cls-8" d="M39.67,34.82c0-1.14-2.1-2.07-4.68-2.07v4.14C37.58,36.89,39.67,36,39.67,34.82Z"/><path class="cls-10" d="M35,5a18.31,18.31,0,0,0-18.2,16.57c-2.36.66-4.15,4-4.15,8,0,4.48,2.24,8.11,5,8.11a4.35,4.35,0,0,0,3.55-2.39,9,9,0,0,0,.86-1.88,12.2,12.2,0,0,0,.6-3.84c0-3.92-1.72-7.19-4-7.94A16.45,16.45,0,0,1,35,6.88h0V5Z"/><path class="cls-11" d="M53.19,21.59A18.31,18.31,0,0,0,35,5V6.88A16.45,16.45,0,0,1,51.33,21.63c-2.29.75-4,4-4,7.94a12.18,12.18,0,0,0,.6,3.84,9,9,0,0,0,.86,1.88,4.35,4.35,0,0,0,3.55,2.39c2.77,0,5-3.63,5-8.11C57.35,25.57,55.56,22.24,53.19,21.59Z"/></g></g></svg>