<svg xmlns="http://www.w3.org/2000/svg" viewBox="0 0 69.96 69.96"><defs><style>.cls-1{fill:#e26a6a;}.cls-2{fill:#34495e;}.cls-3{fill:#2c3e50;}.cls-4{fill:#f9b256;}.cls-5{fill:#22313f;}.cls-6{fill:#fff;}.cls-7{fill:#ecf0f1;}.cls-8{fill:#eb974e;}.cls-9{fill:#f4b350;}.cls-10{fill:#ffecdb;}.cls-11{fill:#a2ded0;}.cls-12{fill:#ffe5cf;}.cls-13{fill:#4ecdc4;}</style></defs><title>default_avatar_4</title><g id="Calque_2" data-name="Calque 2"><g id="_4" data-name="4"><circle class="cls-1" cx="34.98" cy="34.98" r="34.98"/><path class="cls-2" d="M24.35,60.87a11.39,11.39,0,0,1,4.48-.81c3.4,0,6.16,1.16,6.16,2.58h0V14.42c-10.49,0-19,11.37-19,25.4C16,48.58,19.31,56.3,24.35,60.87Z"/><path class="cls-3" d="M43.33,62.64C49.63,58.5,54,49.84,54,39.82c0-14-8.5-25.4-19-25.4V62.64Z"/><ellipse class="cls-3" cx="22.21" cy="45.03" rx="4.47" ry="6.66" transform="translate(-8.62 5.4) rotate(-11.63)"/><ellipse class="cls-4" cx="28.82" cy="62.64" rx="6.16" ry="2.58"/><ellipse class="cls-5" cx="47.75" cy="45.03" rx="6.66" ry="4.47" transform="translate(-5.98 82.72) rotate(-78.37)"/><path class="cls-6" d="M28.82,60.05c3.4,0,6.16,1.16,6.16,2.58h0V42.9c-4.91,0-8.88,5-8.88,11.16a13.26,13.26,0,0,0,1.42,6.05C27.94,60.08,28.37,60.05,28.82,60.05Z"/><path class="cls-7" d="M41.14,60.05c.45,0,.88,0,1.3.06a13.24,13.24,0,0,0,1.42-6.05c0-6.16-4-11.16-8.88-11.16V62.64h0C35,61.21,37.74,60.05,41.14,60.05Z"/><ellipse class="cls-8" cx="41.14" cy="62.64" rx="6.16" ry="2.58"/><circle class="cls-6" cx="45.07" cy="31.27" r="2.9"/><circle class="cls-6" cx="24.89" cy="31.27" r="2.9"/><circle cx="26.1" cy="31.82" r="1.21"/><circle cx="43.86" cy="31.82" r="1.21"/><path class="cls-9" d="M30.3,36.23c0,1.14,2.1,2.07,4.68,2.07V34.17C32.39,34.17,30.3,35.09,30.3,36.23Z"/><path class="cls-8" d="M39.66,36.23c0-1.14-2.1-2.07-4.68-2.07V38.3C37.57,38.3,39.66,37.38,39.66,36.23Z"/><path class="cls-10" d="M35,2.22h0a5.28,5.28,0,1,0,0,10.57h0Z"/><path class="cls-11" d="M35,9.1h0c-9.74,0-17.63,7.44-17.63,16.61a15.78,15.78,0,0,0,.38,3.46H35Z"/><path class="cls-10" d="M35,25.12H17.37c0,.2,0,.39,0,.59a15.75,15.75,0,0,0,.38,3.46H35Z"/><path class="cls-12" d="M35,2.22h0a5.28,5.28,0,1,1,0,10.57h0Z"/><path class="cls-13" d="M35,9.1h0c9.74,0,17.63,7.44,17.63,16.61a15.75,15.75,0,0,1-.38,3.46H35Z"/><path class="cls-10" d="M35,25.12H52.59c0,.2,0,.39,0,.59a15.72,15.72,0,0,1-.39,3.46H35Z"/><path class="cls-10" d="M51.89,21a7.16,7.16,0,0,0-.76,0,5.63,5.63,0,0,0-3.16.88,5.27,5.27,0,0,1-5.5,0,6.09,6.09,0,0,0-6.32,0,5.27,5.27,0,0,1-5.5,0,6.09,6.09,0,0,0-6.31,0,4.87,4.87,0,0,1-2.75.78,4.87,4.87,0,0,1-2.75-.78,9.24,9.24,0,0,0-.88-.45q-.11.41-.21.82c.24.11.46.23.68.36a5.63,5.63,0,0,0,3.16.88,5.63,5.63,0,0,0,3.16-.88,5.27,5.27,0,0,1,5.5,0,6.1,6.1,0,0,0,6.31,0,5.27,5.27,0,0,1,5.5,0,6.1,6.1,0,0,0,6.32,0,4.86,4.86,0,0,1,2.75-.78,5.6,5.6,0,0,1,1,.08C52.06,21.6,52,21.31,51.89,21Z"/><path class="cls-10" d="M24.74,13.88a5.27,5.27,0,0,1,5.5,0,6.1,6.1,0,0,0,6.31,0,5.27,5.27,0,0,1,5.5,0,5.63,5.63,0,0,0,3.16.88,5.41,5.41,0,0,0,2.49-.53c-.21-.21-.43-.42-.66-.62a4.78,4.78,0,0,1-1.84.32,4.86,4.86,0,0,1-2.75-.78,6.1,6.1,0,0,0-6.32,0,5.27,5.27,0,0,1-5.5,0,6.1,6.1,0,0,0-6.31,0,5.23,5.23,0,0,1-1.68.68q-.48.44-.93.92A5.66,5.66,0,0,0,24.74,13.88Z"/><path class="cls-10" d="M21.58,17.66a5.62,5.62,0,0,0,3.16-.88,5.28,5.28,0,0,1,5.5,0,6.08,6.08,0,0,0,6.31,0,5.28,5.28,0,0,1,5.5,0,6.09,6.09,0,0,0,6.32,0,6.68,6.68,0,0,1,1.09-.52q-.26-.35-.53-.69a9,9,0,0,0-1,.49,5.26,5.26,0,0,1-5.5,0,6.11,6.11,0,0,0-6.32,0,5.26,5.26,0,0,1-5.5,0,6.1,6.1,0,0,0-6.31,0,4.85,4.85,0,0,1-2.75.78,5.22,5.22,0,0,1-1.38-.17q-.25.36-.47.73A5.78,5.78,0,0,0,21.58,17.66Z"/><path class="cls-10" d="M24.74,19.68a5.27,5.27,0,0,1,5.5,0,6.09,6.09,0,0,0,6.31,0,5.27,5.27,0,0,1,5.5,0,6.1,6.1,0,0,0,6.32,0,4.86,4.86,0,0,1,2.68-.77q-.2-.41-.42-.81A5.61,5.61,0,0,0,48,19a5.27,5.27,0,0,1-5.5,0,6.09,6.09,0,0,0-6.32,0,5.27,5.27,0,0,1-5.5,0,6.09,6.09,0,0,0-6.31,0,4.87,4.87,0,0,1-2.75.78A4.84,4.84,0,0,1,18.87,19q-.18.38-.34.76a5.54,5.54,0,0,0,3.05.82A5.63,5.63,0,0,0,24.74,19.68Z"/></g></g></svg>