<svg xmlns="http://www.w3.org/2000/svg" viewBox="0 0 69.96 69.96"><defs><style>.cls-1{fill:#e26a6a;}.cls-2{fill:#34495e;}.cls-3{fill:#2c3e50;}.cls-4{fill:#f9b256;}.cls-5{fill:#22313f;}.cls-6{fill:#fff;}.cls-7{fill:#ecf0f1;}.cls-8{fill:#eb974e;}.cls-9{fill:#f4b350;}.cls-10{fill:#ffecdb;}.cls-11{fill:#a2ded0;}.cls-12{fill:#ffe5cf;}.cls-13{fill:#65c6bb;}</style></defs><title>default_avatar_6</title><g id="Calque_2" data-name="Calque 2"><g id="_6" data-name="6"><circle class="cls-1" cx="34.98" cy="34.98" r="34.98"/><path class="cls-2" d="M24.35,60.87a11.4,11.4,0,0,1,4.48-.81c3.4,0,6.16,1.16,6.16,2.59h0V14.42c-10.49,0-19,11.37-19,25.4C16,48.58,19.3,56.3,24.35,60.87Z"/><path class="cls-3" d="M43.33,62.64C49.63,58.51,54,49.84,54,39.82c0-14-8.5-25.4-19-25.4V62.64Z"/><ellipse class="cls-3" cx="22.21" cy="45.03" rx="4.47" ry="6.66" transform="translate(-8.61 5.39) rotate(-11.61)"/><ellipse class="cls-4" cx="28.82" cy="62.64" rx="6.16" ry="2.59"/><ellipse class="cls-5" cx="47.75" cy="45.03" rx="6.66" ry="4.47" transform="translate(-5.97 82.74) rotate(-78.39)"/><path class="cls-6" d="M28.82,60.06c3.4,0,6.16,1.16,6.16,2.59h0V42.9c-4.9,0-8.88,5-8.88,11.16a13.25,13.25,0,0,0,1.42,6C27.94,60.08,28.37,60.06,28.82,60.06Z"/><path class="cls-7" d="M41.14,60.06c.45,0,.88,0,1.3.06a13.22,13.22,0,0,0,1.42-6c0-6.17-4-11.16-8.88-11.16V62.64h0C35,61.21,37.74,60.06,41.14,60.06Z"/><ellipse class="cls-8" cx="41.14" cy="62.64" rx="6.16" ry="2.59"/><circle class="cls-6" cx="44.69" cy="31.17" r="2.9"/><circle class="cls-6" cx="24.5" cy="31.17" r="2.9"/><circle cx="25.72" cy="31.72" r="1.21"/><circle cx="43.48" cy="31.72" r="1.21"/><path class="cls-9" d="M30.3,35c0,1.14,2.1,2.07,4.68,2.07V32.93C32.39,32.93,30.3,33.86,30.3,35Z"/><path class="cls-8" d="M39.66,35c0-1.14-2.1-2.07-4.68-2.07v4.14C37.56,37.07,39.66,36.14,39.66,35Z"/><path class="cls-10" d="M35,2.22h0a5.28,5.28,0,0,0,0,10.57h0Z"/><path class="cls-11" d="M35,9.1h0c-9.74,0-17.63,7.44-17.63,16.61a15.84,15.84,0,0,0,.38,3.46H35Z"/><path class="cls-10" d="M35,25.12H17.37c0,.2,0,.39,0,.59a15.78,15.78,0,0,0,.38,3.46H35Z"/><path class="cls-12" d="M35,2.22h0a5.28,5.28,0,0,1,0,10.57h0Z"/><path class="cls-13" d="M35,9.1h0c9.74,0,17.63,7.44,17.63,16.61a15.78,15.78,0,0,1-.38,3.46H35Z"/><path class="cls-10" d="M35,25.12H52.59c0,.2,0,.39,0,.59a15.72,15.72,0,0,1-.38,3.46H35Z"/><path class="cls-10" d="M51.89,21a7.17,7.17,0,0,0-.76,0,5.63,5.63,0,0,0-3.16.88,5.26,5.26,0,0,1-5.5,0,6.09,6.09,0,0,0-6.32,0,5.26,5.26,0,0,1-5.5,0,6.09,6.09,0,0,0-6.31,0,4.85,4.85,0,0,1-2.75.78,4.86,4.86,0,0,1-2.75-.78,9.84,9.84,0,0,0-.88-.45c-.08.27-.15.54-.21.82.24.11.46.23.68.36a5.62,5.62,0,0,0,3.16.88,5.63,5.63,0,0,0,3.16-.88,5.27,5.27,0,0,1,5.5,0,6.09,6.09,0,0,0,6.31,0,5.27,5.27,0,0,1,5.5,0,6.1,6.1,0,0,0,6.32,0,4.87,4.87,0,0,1,2.75-.78,5.64,5.64,0,0,1,1,.08C52.06,21.6,52,21.31,51.89,21Z"/><path class="cls-10" d="M24.74,13.88a5.27,5.27,0,0,1,5.5,0,6.09,6.09,0,0,0,6.31,0,5.27,5.27,0,0,1,5.5,0,5.63,5.63,0,0,0,3.16.88,5.4,5.4,0,0,0,2.49-.53c-.21-.21-.43-.42-.66-.62a4.78,4.78,0,0,1-1.84.32,4.86,4.86,0,0,1-2.75-.78,6.1,6.1,0,0,0-6.32,0,5.27,5.27,0,0,1-5.5,0,6.1,6.1,0,0,0-6.31,0,5.25,5.25,0,0,1-1.67.68c-.32.3-.63.6-.93.92A5.62,5.62,0,0,0,24.74,13.88Z"/><path class="cls-10" d="M21.58,17.67a5.64,5.64,0,0,0,3.16-.88,5.26,5.26,0,0,1,5.5,0,6.1,6.1,0,0,0,6.31,0,5.27,5.27,0,0,1,5.5,0,6.1,6.1,0,0,0,6.32,0,6.48,6.48,0,0,1,1.09-.52c-.17-.23-.35-.46-.53-.68a8.73,8.73,0,0,0-1,.49,5.27,5.27,0,0,1-5.5,0,6.09,6.09,0,0,0-6.32,0,5.27,5.27,0,0,1-5.5,0,6.09,6.09,0,0,0-6.31,0,4.86,4.86,0,0,1-2.75.78,5.2,5.2,0,0,1-1.39-.17c-.16.24-.32.48-.47.73A5.79,5.79,0,0,0,21.58,17.67Z"/><path class="cls-10" d="M24.74,19.68a5.27,5.27,0,0,1,5.5,0,6.1,6.1,0,0,0,6.31,0,5.27,5.27,0,0,1,5.5,0,6.1,6.1,0,0,0,6.32,0,4.85,4.85,0,0,1,2.68-.77c-.13-.27-.27-.55-.42-.81A5.64,5.64,0,0,0,48,19a5.27,5.27,0,0,1-5.5,0,6.09,6.09,0,0,0-6.32,0,5.27,5.27,0,0,1-5.5,0,6.09,6.09,0,0,0-6.31,0,4.85,4.85,0,0,1-2.75.78A4.81,4.81,0,0,1,18.87,19c-.12.25-.23.51-.33.76a5.51,5.51,0,0,0,3.05.82A5.63,5.63,0,0,0,24.74,19.68Z"/><path class="cls-10" d="M19.72,45.37a1.13,1.13,0,0,1-1,1.22h0a1.13,1.13,0,0,1-1-1.22v-19a1.13,1.13,0,0,1,1-1.23h0a1.13,1.13,0,0,1,1,1.23Z"/><path class="cls-10" d="M52.23,45.31a1.13,1.13,0,0,1-1,1.22h0a1.13,1.13,0,0,1-1-1.22v-19a1.13,1.13,0,0,1,1-1.22h0a1.13,1.13,0,0,1,1,1.22Z"/><circle class="cls-11" cx="18.73" cy="44.42" r="2.57"/><circle class="cls-13" cx="51.23" cy="44.42" r="2.57"/></g></g></svg>