<svg xmlns="http://www.w3.org/2000/svg" viewBox="0 0 69.96 69.96"><defs><style>.cls-1{fill:#a2ded0;}.cls-2{fill:#34495e;}.cls-3{fill:#2c3e50;}.cls-4{fill:#f9b256;}.cls-5{fill:#22313f;}.cls-6{fill:#fff;}.cls-7{fill:#ecf0f1;}.cls-8{fill:#eb974e;}.cls-9{fill:#f4b350;}.cls-10{fill:#d799ae;}.cls-11{fill:#d77b9a;}</style></defs><title>default_avatar_3</title><g id="Calque_2" data-name="Calque 2"><g id="_3" data-name="3"><circle class="cls-1" cx="34.98" cy="34.98" r="34.98"/><path class="cls-2" d="M24.36,60.23a11.38,11.38,0,0,1,4.48-.81c3.4,0,6.16,1.16,6.16,2.58h0V13.78c-10.49,0-19,11.37-19,25.4C16,47.94,19.32,55.66,24.36,60.23Z"/><path class="cls-3" d="M43.34,62C49.64,57.87,54,49.2,54,39.18c0-14-8.5-25.4-19-25.4V62Z"/><ellipse class="cls-3" cx="22.22" cy="44.39" rx="4.47" ry="6.66" transform="translate(-8.48 5.39) rotate(-11.62)"/><ellipse class="cls-4" cx="28.83" cy="62" rx="6.16" ry="2.58"/><ellipse class="cls-5" cx="47.76" cy="44.39" rx="6.66" ry="4.47" transform="translate(-5.34 82.23) rotate(-78.38)"/><path class="cls-6" d="M28.83,59.42c3.4,0,6.16,1.16,6.16,2.58h0V42.26c-4.9,0-8.88,5-8.88,11.16a13.25,13.25,0,0,0,1.42,6C28,59.44,28.39,59.42,28.83,59.42Z"/><path class="cls-7" d="M41.15,59.42c.45,0,.88,0,1.3.06a13.24,13.24,0,0,0,1.42-6c0-6.16-4-11.16-8.88-11.16V62h0C35,60.57,37.75,59.42,41.15,59.42Z"/><ellipse class="cls-8" cx="41.15" cy="62" rx="6.16" ry="2.58"/><circle class="cls-6" cx="45.09" cy="31.04" r="2.9"/><circle class="cls-6" cx="24.9" cy="31.04" r="2.9"/><circle cx="26.11" cy="31.59" r="1.21"/><circle cx="43.87" cy="31.59" r="1.21"/><path class="cls-9" d="M30.31,34.85c0,1.14,2.1,2.07,4.68,2.07V32.79C32.41,32.79,30.31,33.71,30.31,34.85Z"/><path class="cls-8" d="M39.67,34.85c0-1.14-2.1-2.07-4.68-2.07v4.14C37.58,36.92,39.67,36,39.67,34.85Z"/><path class="cls-10" d="M16.79,21.68c-2.36.66-4.16,4-4.16,8,0,4.48,2.24,8.11,5,8.11a4.36,4.36,0,0,0,3.55-2.39,9.08,9.08,0,0,0,.86-1.88,12.21,12.21,0,0,0,.6-3.84c0-3.92-1.72-7.19-4-7.94A16.45,16.45,0,0,1,35,7V5.11A18.31,18.31,0,0,0,16.79,21.68Z"/><path class="cls-11" d="M51.33,21.72c-2.29.75-4,4-4,7.94a12.19,12.19,0,0,0,.6,3.84,9.13,9.13,0,0,0,.86,1.88,4.36,4.36,0,0,0,3.55,2.39c2.77,0,5-3.63,5-8.11,0-4-1.79-7.33-4.15-8A18.31,18.31,0,0,0,35,5.11V7A16.45,16.45,0,0,1,51.33,21.72Z"/></g></g></svg>