<svg xmlns="http://www.w3.org/2000/svg" viewBox="0 0 69.96 69.96"><defs><style>.cls-1{fill:#a2ded0;}.cls-2{fill:#34495e;}.cls-3{fill:#2c3e50;}.cls-4{fill:#f9b256;}.cls-5{fill:#22313f;}.cls-6{fill:#fff;}.cls-7{fill:#ecf0f1;}.cls-8{fill:#eb974e;}.cls-9{fill:#f4b350;}.cls-10{fill:#f9bf3b;}.cls-11{fill:#f27935;}</style></defs><title>default_avatar_2</title><g id="Calque_2" data-name="Calque 2"><g id="_1" data-name="1"><circle class="cls-1" cx="34.98" cy="34.98" r="34.98"/><path class="cls-2" d="M24.35,60.29a11.39,11.39,0,0,1,4.48-.81c3.4,0,6.16,1.16,6.16,2.59h0V13.84c-10.49,0-19,11.37-19,25.4C16,48,19.31,55.72,24.35,60.29Z"/><path class="cls-3" d="M43.33,62.06C49.63,57.92,54,49.26,54,39.24c0-14-8.5-25.4-19-25.4V62.06Z"/><ellipse class="cls-3" cx="22.21" cy="44.44" rx="4.47" ry="6.66" transform="translate(-8.49 5.38) rotate(-11.62)"/><ellipse class="cls-4" cx="28.82" cy="62.06" rx="6.16" ry="2.58"/><ellipse class="cls-5" cx="47.75" cy="44.44" rx="6.66" ry="4.47" transform="translate(-5.4 82.27) rotate(-78.38)"/><path class="cls-6" d="M28.82,59.47c3.4,0,6.16,1.16,6.16,2.59h0V42.32c-4.9,0-8.88,5-8.88,11.16a13.26,13.26,0,0,0,1.42,6.05C27.94,59.49,28.37,59.47,28.82,59.47Z"/><path class="cls-7" d="M41.14,59.47c.45,0,.88,0,1.3.06a13.24,13.24,0,0,0,1.42-6.05c0-6.16-4-11.16-8.88-11.16V62.06h0C35,60.63,37.74,59.47,41.14,59.47Z"/><ellipse class="cls-8" cx="41.14" cy="62.06" rx="6.16" ry="2.58"/><circle class="cls-6" cx="45.07" cy="30.01" r="2.9"/><circle class="cls-6" cx="24.89" cy="30.01" r="2.9"/><circle cx="26.1" cy="30.56" r="1.21"/><circle cx="43.86" cy="30.56" r="1.21"/><path class="cls-9" d="M30.3,35C30.3,36.12,32.39,37,35,37V32.91C32.39,32.91,30.3,33.84,30.3,35Z"/><path class="cls-8" d="M39.66,35c0-1.14-2.1-2.07-4.68-2.07V37C37.57,37,39.66,36.12,39.66,35Z"/><path class="cls-10" d="M34.6,6.88V5A18.31,18.31,0,0,0,16.39,21.59c-2.36.66-4.16,4-4.16,8,0,4.48,2.25,8.11,5,8.11a4.36,4.36,0,0,0,3.55-2.39,9,9,0,0,0,.86-1.88,12.26,12.26,0,0,0,.6-3.84c0-3.92-1.72-7.19-4-7.94A16.45,16.45,0,0,1,34.6,6.88Z"/><path class="cls-11" d="M34.6,6.88V5A18.31,18.31,0,0,1,52.8,21.59c2.36.66,4.16,4,4.16,8,0,4.48-2.25,8.11-5,8.11a4.35,4.35,0,0,1-3.55-2.39,9,9,0,0,1-.86-1.88,12.23,12.23,0,0,1-.6-3.84c0-3.92,1.72-7.19,4-7.94A16.45,16.45,0,0,0,34.6,6.88Z"/></g></g></svg>