<svg xmlns="http://www.w3.org/2000/svg" viewBox="0 0 69.96 71.15"><defs><style>.cls-1{fill:#e26a6a;}.cls-2{fill:#34495e;}.cls-3{fill:#2c3e50;}.cls-4{fill:#f9b256;}.cls-5{fill:#22313f;}.cls-6{fill:#fff;}.cls-7{fill:#ecf0f1;}.cls-8{fill:#eb974e;}.cls-9{fill:#f4b350;}.cls-10{fill:#ffecdb;}.cls-11{fill:#f1a9a0;}.cls-12{fill:#ffe8d4;}</style></defs><title>default_avatar_8</title><g id="Calque_2" data-name="Calque 2"><g id="_8" data-name="8"><circle class="cls-1" cx="34.98" cy="36.17" r="34.98"/><path class="cls-2" d="M24.41,62.57a11.41,11.41,0,0,1,4.48-.81c3.4,0,6.16,1.16,6.16,2.59h0V16.12c-10.49,0-19,11.37-19,25.4C16.05,50.28,19.36,58,24.41,62.57Z"/><path class="cls-3" d="M43.39,64.34C49.69,60.21,54,51.55,54,41.53c0-14-8.5-25.4-19-25.4V64.34Z"/><ellipse class="cls-3" cx="22.27" cy="46.73" rx="4.47" ry="6.66" transform="translate(-8.95 5.44) rotate(-11.61)"/><ellipse class="cls-4" cx="28.88" cy="64.34" rx="6.16" ry="2.59"/><ellipse class="cls-5" cx="47.81" cy="46.73" rx="6.66" ry="4.47" transform="translate(-7.59 84.15) rotate(-78.39)"/><path class="cls-6" d="M28.88,61.76c3.4,0,6.16,1.16,6.16,2.59h0V44.61c-4.9,0-8.88,5-8.88,11.16a13.25,13.25,0,0,0,1.42,6.05Q28.21,61.76,28.88,61.76Z"/><path class="cls-7" d="M41.2,61.76c.45,0,.88,0,1.3.06a13.24,13.24,0,0,0,1.42-6.05c0-6.16-4-11.16-8.88-11.16V64.34h0C35,62.92,37.8,61.76,41.2,61.76Z"/><ellipse class="cls-8" cx="41.2" cy="64.34" rx="6.16" ry="2.59"/><circle class="cls-6" cx="45.13" cy="32.88" r="2.9"/><circle class="cls-6" cx="24.95" cy="32.88" r="2.9"/><circle cx="26.16" cy="33.42" r="1.21"/><circle cx="43.92" cy="33.42" r="1.21"/><path class="cls-9" d="M30.36,36.7c0,1.14,2.09,2.07,4.68,2.07V34.63C32.45,34.63,30.36,35.56,30.36,36.7Z"/><path class="cls-8" d="M39.72,36.7c0-1.14-2.1-2.07-4.68-2.07v4.14C37.63,38.77,39.72,37.85,39.72,36.7Z"/><path class="cls-10" d="M35,11.6c-9.5,0-17.34,6-18.2,13.75-2.36.55-4.15,3.3-4.15,6.63,0,3.71,2.24,6.72,5,6.72a4.47,4.47,0,0,0,3.55-2,7,7,0,0,0,.86-1.56,8.58,8.58,0,0,0,.6-3.19c0-3.25-1.72-6-4-6.59.84-6.87,7.85-12.24,16.34-12.24h0V11.6Z"/><ellipse class="cls-10" cx="19.83" cy="8.23" rx="5.05" ry="9.07" transform="translate(-1.43 11.19) rotate(-30.46)"/><ellipse class="cls-11" cx="19.83" cy="8.23" rx="2.87" ry="5.16" transform="translate(-1.43 11.19) rotate(-30.46)"/><path class="cls-12" d="M35,11.6c9.5,0,17.34,6,18.21,13.75,2.36.55,4.15,3.3,4.15,6.63,0,3.71-2.24,6.72-5,6.72a4.47,4.47,0,0,1-3.55-2A7,7,0,0,1,48,35.16a8.6,8.6,0,0,1-.6-3.19c0-3.25,1.72-6,4-6.59C50.53,18.52,43.52,13.15,35,13.15h0V11.6Z"/><ellipse class="cls-12" cx="50.25" cy="8.23" rx="9.07" ry="5.05" transform="translate(17.68 47.36) rotate(-59.53)"/><ellipse class="cls-11" cx="50.25" cy="8.23" rx="5.16" ry="2.87" transform="translate(17.68 47.36) rotate(-59.54)"/></g></g></svg>