<svg xmlns="http://www.w3.org/2000/svg" viewBox="0 0 69.96 69.96"><defs><style>.cls-1{fill:#a2ded0;}.cls-2{fill:#c0392b;}.cls-3{fill:#e74c3c;}.cls-4{fill:#34495e;}.cls-5{fill:#2c3e50;}.cls-6{fill:#f9b256;}.cls-7{fill:#22313f;}.cls-8{fill:#fff;}.cls-9{fill:#ecf0f1;}.cls-10{fill:#eb974e;}.cls-11{fill:#ffecdb;}.cls-12{fill:#ef4836;}.cls-13{fill:#f4b350;}</style></defs><title>default_avatar_7</title><g id="Calque_2" data-name="Calque 2"><g id="_7" data-name="7"><circle class="cls-1" cx="34.98" cy="34.98" r="34.98"/><path class="cls-2" d="M17.38,25.61,35,39.23V4.46S17.38,5.26,17.38,25.61Z"/><path class="cls-3" d="M35,4.46V39.23l25.4,19.65S70.69,4.46,35,4.46Z"/><path class="cls-4" d="M24.35,61.37a11.38,11.38,0,0,1,4.48-.81c3.4,0,6.16,1.16,6.16,2.59h0V14.92c-10.49,0-19,11.37-19,25.4C16,49.08,19.31,56.8,24.35,61.37Z"/><path class="cls-5" d="M43.33,63.14C49.63,59,54,50.34,54,40.32c0-14-8.5-25.4-19-25.4V63.14Z"/><ellipse class="cls-5" cx="22.21" cy="45.52" rx="4.47" ry="6.66" transform="translate(-8.72 5.41) rotate(-11.63)"/><ellipse class="cls-6" cx="28.82" cy="63.14" rx="6.16" ry="2.58"/><ellipse class="cls-7" cx="47.75" cy="45.52" rx="6.66" ry="4.47" transform="translate(-6.46 83.12) rotate(-78.37)"/><path class="cls-8" d="M28.82,60.55c3.4,0,6.16,1.16,6.16,2.59h0V43.4c-4.9,0-8.88,5-8.88,11.16a13.25,13.25,0,0,0,1.42,6C27.94,60.57,28.38,60.55,28.82,60.55Z"/><path class="cls-9" d="M41.14,60.55c.45,0,.88,0,1.3.06a13.24,13.24,0,0,0,1.42-6c0-6.16-4-11.16-8.88-11.16V63.14h0C35,61.71,37.74,60.55,41.14,60.55Z"/><ellipse class="cls-10" cx="41.14" cy="63.14" rx="6.16" ry="2.58"/><path class="cls-11" d="M55.09,58.88a5.3,5.3,0,0,0,5.3,5.3h0a5.3,5.3,0,0,0,5.3-5.3h0a5.3,5.3,0,0,0-5.3-5.3h0a5.3,5.3,0,0,0-5.3,5.3Z"/><path class="cls-12" d="M17.38,25.61l5.23,4H35V4.46S17.38,5.26,17.38,25.61Z"/><path class="cls-3" d="M35,4.46V29.65H60.76C58.53,16.75,52,4.46,35,4.46Z"/><circle class="cls-8" cx="45.08" cy="31.67" r="2.9"/><circle class="cls-8" cx="24.89" cy="31.67" r="2.9"/><circle cx="26.1" cy="32.22" r="1.21"/><circle cx="43.86" cy="32.22" r="1.21"/><path class="cls-13" d="M30.3,35.5c0,1.14,2.09,2.07,4.68,2.07V33.43C32.4,33.43,30.3,34.36,30.3,35.5Z"/><path class="cls-10" d="M39.66,35.5c0-1.14-2.1-2.07-4.68-2.07v4.14C37.57,37.57,39.66,36.64,39.66,35.5Z"/><path class="cls-11" d="M35,25.61H52.6c0,.2,0,.39,0,.59a15.75,15.75,0,0,1-.39,3.46H35Z"/><path class="cls-11" d="M35,25.61H17.38c0,.2,0,.39,0,.59a15.75,15.75,0,0,0,.39,3.46H35Z"/></g></g></svg>